<?xml version="1.0" encoding="utf-8"?>
<!-- Generator: Adobe Illustrator 17.1.0, SVG Export Plug-In . SVG Version: 6.00 Build 0)  -->
<!DOCTYPE svg PUBLIC "-//W3C//DTD SVG 1.1//EN" "http://www.w3.org/Graphics/SVG/1.1/DTD/svg11.dtd">
<svg version="1.1" xmlns="http://www.w3.org/2000/svg" xmlns:xlink="http://www.w3.org/1999/xlink" x="0px" y="0px"
	 viewBox="0 0 691.1 110.9" enable-background="new 0 0 691.1 110.9" xml:space="preserve">
<g id="Ebene_1" display="none">
	<g display="inline">
		<path fill="none" d="M354,29.3c-2.2,0-7.3,0.2-9.2,0.4v23.3c1.7,0.1,7.4,0.3,9.2,0.3c10.7,0,15.5-2.9,15.5-12v-0.9
			C369.5,32.6,364.4,29.3,354,29.3z"/>
		<path fill="none" d="M471.5,28.6c-3.8,0-6.5,0.2-8.7,0.3v53.6c2.2,0.1,4.9,0.3,8.7,0.3c10.3,0,18.2-4,18.2-19.5V48.2
			C489.7,32.7,481.8,28.6,471.5,28.6z"/>
		<path fill="#363636" d="M55.8,18.7c0-0.7-0.6-1.3-2-1.3H42.1c-1.2,0-1.9,0.1-2.4,0.8l-25.3,34V19.4c0-1.1-0.9-2-2.1-2H2.1
			c-1.1,0-2.1,0.8-2.1,2V92c0,1.1,0.9,2.1,2.1,2.1h10.2c1.2,0,2.1-0.9,2.1-2.1V57.7L38,93c0.5,0.8,1.2,1.1,2.4,1.1h13.8
			c1,0,1.5-0.3,1.5-0.9c0-0.3-0.2-0.7-0.5-1.2L28.6,54.5l26.5-34.2C55.5,19.8,55.8,19.2,55.8,18.7z"/>
		<path fill="#363636" d="M89.1,17.4H78.8c-1.1,0-2.1,0.8-2.1,2v72.7c0,1.1,0.9,2.1,2.1,2.1h10.2c1.1,0,2.1-0.9,2.1-2.1V19.4
			C91.2,18.2,90.2,17.4,89.1,17.4z"/>
		<path fill="#363636" d="M194.1,17h-11c-0.8,0-1.7,0.7-1.8,1.9l-7.4,61.7c-0.1,0.9-0.1,1.6-0.5,1.6c-0.4,0-0.4-0.6-0.6-1.6
			l-8.9-36.3c-0.6-2.5-2.1-4.6-6.5-4.6h-7.1c-4.4,0-5.9,2.2-6.5,4.6l-8.9,36.3c-0.2,0.9-0.2,1.6-0.6,1.6c-0.4,0-0.4-0.6-0.5-1.6
			l-7.5-61.7c-0.1-1.1-0.9-1.9-1.7-1.9h-11c-0.9,0-1.8,0.5-1.8,1.4v0.3l9.7,67.5c0.9,6.5,3.9,8.4,9.3,8.4h5.6c4.6,0,7.1-2.3,8.6-8.3
			l8.2-34.1c0.2-0.9,0.3-1.1,0.7-1.1c0.4,0,0.4,0.2,0.6,1.1l8.2,34.1c1.4,6,3.9,8.3,8.6,8.3h5.6c5.4,0,8.4-1.9,9.3-8.4l9.7-67.5
			v-0.3C195.8,17.5,195,17,194.1,17z"/>
		<path fill="#363636" d="M228.7,17.4h-10.2c-1.1,0-2.1,0.8-2.1,2v72.7c0,1.1,0.9,2.1,2.1,2.1h10.2c1.1,0,2.1-0.9,2.1-2.1V19.4
			C230.8,18.2,229.8,17.4,228.7,17.4z"/>
		<path fill="#363636" d="M302.7,18.4c-3.4-0.6-12.3-1.9-22.2-1.9c-12.3,0-28,7.3-28,31.8v14.9c0,24.4,16.5,31.7,27.7,31.7
			c10.6,0,17.4-0.7,22.5-1.7c1.3-0.3,2-1.1,2-2.5V56c0-1.2-0.9-2.1-2-2.1h-10.2c-1.1,0-2,0.9-2,2.1v26.4c-3.2,0.2-6.4,0.3-10.2,0.3
			c-6.1,0-13.2-4.8-13.2-19.4V48.4c0-14.7,6.6-19.5,13.5-19.5c9.9,0,17.1,0.4,21.8,0.8h0.3c1.6,0,2-0.7,2-2.2v-6.9
			C304.6,19.3,304,18.7,302.7,18.4z"/>
		<path fill="#363636" d="M369.8,62.3c8.5-3.3,13.9-10.1,13.9-21.1v-0.9c0-17.7-13.8-23.4-29.8-23.4c-7.5,0-14.9,0.5-20.2,1.3
			c-2.1,0.3-3.3,1-3.3,3.1v71.1c0,1.1,0.9,2.1,2.1,2.1h10.3c1.2,0,2-0.9,2-2.1v-28c2.4,0.1,6.5,0.4,9.2,0.4h1.5l14.9,27.6
			c0.5,1,0.9,2.1,2.1,2.1H385c0.8,0,1.2-0.5,1.2-1.2c0-0.2,0-0.5-0.2-0.8L369.8,62.3z M369.5,41.3c0,9.1-4.8,12-15.5,12
			c-1.7,0-7.5-0.2-9.2-0.3V29.7c1.9-0.2,7-0.4,9.2-0.4c10.4,0,15.5,3.3,15.5,11.1V41.3z"/>
		<path fill="#363636" d="M420.6,17.4h-10.2c-1.1,0-2.1,0.8-2.1,2v72.7c0,1.1,0.9,2.1,2.1,2.1h10.2c1.1,0,2.1-0.9,2.1-2.1V19.4
			C422.6,18.2,421.7,17.4,420.6,17.4z"/>
		<path fill="#363636" d="M471.5,16.6c-7.3,0-17.2,0.7-20.3,1.2c-1.8,0.3-2.7,1.2-2.7,3.2v69.5c0,2.1,0.9,2.9,2.7,3.2
			c3.1,0.5,13,1.2,20.3,1.2c20.7,0,32.5-11.2,32.5-31.6V48.2C503.9,27.7,492.1,16.6,471.5,16.6z M489.7,63.4
			c0,15.5-7.9,19.5-18.2,19.5c-3.8,0-6.5-0.2-8.7-0.3V29c2.2-0.1,4.9-0.3,8.7-0.3c10.3,0,18.2,4,18.2,19.5V63.4z"/>
		<path fill="#BABF10" d="M684.1,55.9c-1.9-3.1-4-6.1-6.2-9c-6-7.8-13.1-15.8-21.7-24.4c-2.9-2.8-5.4-5.3-7.9-7.5
			c-3.1-2.8-5.7-5-8.3-7c-1.6-1.3-3.1-2.2-4.4-3c-0.7-0.4-1.5-0.9-2.4-1.2c-0.9-0.3-1.9-0.4-2.9-0.5l-4.4,0.3
			c-5.4,0.3-7.9,1-12.1,2.2l-1.4,0.4c-2.9,0.8-5.2,1.5-7.4,2.2c-2.2,0.7-4.5,1.5-7.1,2.5c-5.2,1.9-9.7,3.8-13.5,5.7
			c-2.1,1.1-4.2,2.2-6.1,3.4c-1.1,0.7-1.9,1.3-2.7,1.9c-0.7,0.6-1.6,1.4-2.1,2.2c-0.5,0.8-0.8,1.8-1.2,2.9l-0.1,0.3
			c-1.2,3.5-2,7.2-3,11.4c-1,4.5-2,9.6-3.1,16.2c-0.9,5.3-1.7,10.8-2.4,16.9c-0.7,5.6-1.1,10.7-1.3,15.5l0,0.8c0,0.6,0,1.1-0.1,1.7
			l0,3.5c0.1,1.7,0.2,3.6,0.4,5.2c0.2,1.2,0.5,2.8,1.2,3.8c0.7,0.9,2,1.5,3,1.9c1.2,0.5,2.6,1,4.2,1.4c6.4,1.6,14,2.2,20.5,2.6
			c3.9,0.2,8.1,0.3,11.4,0.3c8.2,0,15.4-0.5,21.8-1.4c3-0.4,6.4-1,9.4-2c2.8-0.9,5.5-2.1,8.3-3.3c2.5-1,4.9-2.2,7.3-3.4l0.7-0.3
			c5.1-2.5,10-5.1,15.1-8.2c5.3-3.2,9.8-6.3,13.6-9.5c1-0.8,2-1.7,2.9-2.7c1-1,1.9-2,2.7-3c1.6-2,3.1-4.2,3.5-7.3v-1.1
			c-0.2-2-1-3.8-1.7-5.4C686,59.2,685.1,57.6,684.1,55.9z M587.8,35.4c0.9-1.4,2.8-1.8,4.2-0.9c1.4,0.9,1.8,2.8,0.9,4.2
			c-0.9,1.4-2.8,1.8-4.2,0.9C587.3,38.7,586.9,36.8,587.8,35.4z M584.8,58.7c-1.7,0-3.1-1.4-3-3.1c0-1.7,1.4-3.1,3.1-3.1
			c1.7,0,3,1.4,3,3.1C587.9,57.3,586.5,58.7,584.8,58.7z M591.8,76.8c-1.4,0.9-3.3,0.5-4.2-0.9c-0.9-1.4-0.5-3.3,0.9-4.2
			c1.4-0.9,3.3-0.5,4.2,0.9C593.7,74,593.3,75.9,591.8,76.8z M594.6,67c-2,0.6-4.2-0.6-4.7-2.6c-0.6-2,0.6-4.1,2.6-4.7
			c2-0.6,4.1,0.6,4.7,2.6C597.8,64.3,596.6,66.4,594.6,67z M597.2,49.3c-0.6,2-2.7,3.2-4.7,2.6c-2-0.6-3.2-2.7-2.6-4.7
			c0.6-2,2.7-3.2,4.7-2.6C596.6,45.2,597.8,47.3,597.2,49.3z M621.2,21.3c0.2-1.7,1.8-2.8,3.5-2.6c1.7,0.2,2.8,1.8,2.6,3.5
			c-0.2,1.7-1.8,2.8-3.5,2.6C622.1,24.5,620.9,23,621.2,21.3z M614.8,25.5c2.1-0.3,4,1.1,4.3,3.2c0.3,2.1-1.2,4-3.2,4.3
			c-2.1,0.3-4-1.2-4.3-3.2C611.3,27.8,612.7,25.8,614.8,25.5z M603.8,21.6c1.5-0.7,3.3,0,4,1.5c0.7,1.5,0,3.4-1.5,4
			c-1.5,0.7-3.3,0-4-1.5C601.6,24.1,602.2,22.3,603.8,21.6z M599.2,32.7c1.6-1.4,4-1.2,5.4,0.4c1.4,1.6,1.2,4-0.4,5.4
			c-1.6,1.4-4,1.2-5.4-0.4C597.4,36.5,597.6,34.1,599.2,32.7z M598.8,73.5c1.4-1.6,3.8-1.8,5.4-0.4c1.6,1.4,1.8,3.8,0.4,5.4
			c-1.4,1.6-3.8,1.8-5.4,0.4C597.6,77.5,597.4,75.1,598.8,73.5z M607.6,88.2c-0.7,1.5-2.5,2.2-4.1,1.5c-1.5-0.7-2.2-2.5-1.5-4.1
			c0.7-1.5,2.5-2.2,4.1-1.5C607.6,84.9,608.3,86.7,607.6,88.2z M619.2,82.8c-0.3,2.1-2.2,3.5-4.3,3.2c-2.1-0.3-3.5-2.2-3.2-4.3
			c0.3-2.1,2.2-3.5,4.3-3.2C618,78.8,619.5,80.7,619.2,82.8z M606.9,55.8c0-7.4,6.1-13.5,13.5-13.5c7.5,0,13.5,6.1,13.5,13.5
			c0,7.5-6,13.5-13.5,13.5C612.9,69.3,606.9,63.2,606.9,55.8z M624.4,92.8c-1.7,0.2-3.2-0.9-3.5-2.6c-0.2-1.7,0.9-3.2,2.6-3.5
			c1.7-0.2,3.2,0.9,3.4,2.6C627.2,91,626.1,92.6,624.4,92.8z M631.9,83.6c-1.9,0.9-4.2,0-5.1-1.9c-0.9-1.9,0-4.2,1.9-5.1
			c1.9-0.9,4.2,0,5.1,1.9C634.6,80.4,633.8,82.7,631.9,83.6z M633.8,33c-0.9,1.9-3.1,2.8-5.1,1.9c-1.9-0.9-2.8-3.2-1.9-5.1
			c0.9-1.9,3.2-2.8,5.1-1.9C633.8,28.8,634.6,31.1,633.8,33z M639.5,27.9c1.1-1.3,3-1.4,4.3-0.3c1.3,1.1,1.4,3,0.3,4.3
			c-1.1,1.3-3,1.4-4.3,0.3C638.5,31.1,638.4,29.1,639.5,27.9z M639.6,38.1c1.8-1.1,4.1-0.6,5.3,1.1c1.1,1.8,0.6,4.1-1.1,5.3
			c-1.8,1.1-4.1,0.6-5.3-1.1C637.3,41.6,637.8,39.3,639.6,38.1z M643.6,84.1c-1.3,1.1-3.2,1-4.3-0.3c-1.1-1.3-1-3.2,0.3-4.3
			c1.3-1.1,3.2-1,4.3,0.3C645,81.1,644.9,83,643.6,84.1z M644.9,72.3c-1.1,1.8-3.5,2.3-5.3,1.1c-1.8-1.1-2.3-3.5-1.1-5.3
			c1.1-1.8,3.5-2.3,5.3-1.1C645.5,68.2,646,70.5,644.9,72.3z M645.9,59.6c-2.1,0-3.8-1.7-3.8-3.8c0-2.1,1.7-3.8,3.8-3.8
			c2.1,0,3.8,1.7,3.8,3.8C649.7,57.9,648,59.6,645.9,59.6z M655.1,66.4c-0.5,1.6-2.2,2.6-3.8,2.1c-1.6-0.5-2.5-2.2-2.1-3.8h0
			c0.5-1.6,2.2-2.5,3.8-2C654.6,63.1,655.5,64.8,655.1,66.4z M653.1,49.1c-1.6,0.5-3.3-0.5-3.8-2.1c-0.5-1.6,0.5-3.3,2.1-3.8
			c1.6-0.5,3.3,0.5,3.8,2.1C655.6,47,654.7,48.6,653.1,49.1z"/>
		<path fill="#829028" d="M691.1,65.9c-0.3-2.4-1.1-4.4-2-6.3c-0.8-1.6-1.7-3.3-2.8-5.1c-1.9-3.1-4.1-6.2-6.4-9.2
			c-6-7.9-13.2-16-21.9-24.7c-2.9-2.9-5.5-5.4-8-7.6c-3.1-2.8-5.8-5.1-8.5-7.1c-1.7-1.3-3.2-2.3-4.7-3.2c-0.8-0.5-1.7-1-2.8-1.4
			c-1.2-0.4-2.5-0.5-3.7-0.6l-0.1,0L625.7,1c-5.6,0.3-8.4,1.1-12.6,2.3l-1.4,0.4c-2.9,0.8-5.3,1.5-7.5,2.2c-2.3,0.7-4.6,1.5-7.3,2.5
			c-5.3,2-9.8,3.9-13.8,5.8c-2.2,1.1-4.3,2.3-6.3,3.6c-1.2,0.7-2.1,1.4-2.9,2.1c-0.9,0.8-1.9,1.7-2.6,2.8c-0.6,1-1,2.2-1.4,3.4
			l-0.1,0.3c-1.2,3.6-2.1,7.4-3,11.7c-1,4.6-2,9.7-3.1,16.3c-0.9,5.4-1.7,10.9-2.4,17c-0.7,5.6-1.1,10.8-1.3,15.7l0,0.8
			c0,0.5,0,1.1,0,1.6l0,3.6c0.1,1.8,0.2,3.8,0.4,5.6c0.3,2.3,0.9,3.9,1.8,5c1.1,1.3,2.7,2.1,4,2.7c1.4,0.6,2.8,1.1,4.6,1.5
			c6.6,1.7,14.3,2.3,21,2.7c4,0.2,8.3,0.3,11.5,0.3c8.4,0,15.6-0.5,22.2-1.4c3.1-0.4,6.6-1,9.9-2.1c2.9-1,5.7-2.1,8.5-3.3
			c2.5-1.1,5-2.3,7.4-3.4l0.7-0.3c5.2-2.5,10.2-5.2,15.3-8.3c5.4-3.3,10-6.5,13.9-9.8c1-0.9,2.1-1.8,3.1-2.9c1.1-1.1,2-2.1,2.9-3.2
			c1.7-2.2,3.6-4.9,4-8.6l0-1.4L691.1,65.9z M688.5,67.3c-0.4,3-1.9,5.3-3.5,7.3c-0.8,1-1.7,2-2.7,3c-1,1-2,1.9-2.9,2.7
			c-3.8,3.2-8.3,6.4-13.6,9.5c-5.1,3-10,5.7-15.1,8.2l-0.7,0.3c-2.4,1.1-4.8,2.3-7.3,3.4c-2.8,1.2-5.5,2.3-8.3,3.3
			c-3,1-6.5,1.6-9.4,2c-6.5,0.9-13.6,1.4-21.8,1.4c-3.2,0-7.4,0-11.4-0.3c-6.5-0.4-14.1-1-20.5-2.6c-1.7-0.4-3-0.8-4.2-1.4
			c-1-0.4-2.3-1-3-1.9c-0.7-0.9-1.1-2.6-1.2-3.8c-0.2-1.7-0.3-3.5-0.4-5.2l0-3.5c0-0.5,0-1.1,0.1-1.7l0-0.8
			c0.2-4.9,0.7-9.9,1.3-15.5c0.7-6,1.5-11.6,2.4-16.9c1.1-6.5,2.1-11.7,3.1-16.2c0.9-4.2,1.8-7.9,3-11.4l0.1-0.3
			c0.4-1.1,0.7-2.1,1.2-2.9c0.5-0.8,1.3-1.5,2.1-2.2c0.7-0.6,1.6-1.3,2.7-1.9c1.9-1.2,3.9-2.4,6.1-3.4c3.8-1.9,8.2-3.8,13.5-5.7
			c2.7-1,4.9-1.8,7.1-2.5c2.2-0.7,4.6-1.4,7.4-2.2l1.4-0.4c4.2-1.2,6.7-1.9,12.1-2.2l4.4-0.3c1,0.1,2,0.2,2.9,0.5
			c0.9,0.3,1.7,0.8,2.4,1.2c1.4,0.8,2.8,1.8,4.4,3c2.6,2,5.2,4.2,8.3,7c2.4,2.2,5,4.6,7.9,7.5c8.6,8.6,15.7,16.6,21.7,24.4
			c2.2,2.9,4.3,5.9,6.2,9c1,1.7,1.9,3.3,2.7,4.9c0.8,1.6,1.5,3.4,1.7,5.4V67.3z"/>
		<path fill="#262626" d="M604.2,38.5c1.6-1.4,1.8-3.8,0.4-5.4c-1.4-1.6-3.8-1.8-5.4-0.4c-1.6,1.4-1.8,3.8-0.4,5.4
			C600.2,39.7,602.6,39.8,604.2,38.5z"/>
		<path fill="#262626" d="M645.9,52c-2.1,0-3.8,1.7-3.8,3.8c0,2.1,1.7,3.8,3.8,3.8c2.1,0,3.8-1.7,3.8-3.8
			C649.7,53.7,648,52,645.9,52z"/>
		<path fill="#262626" d="M604.6,78.5c1.4-1.6,1.2-4-0.4-5.4c-1.6-1.4-4-1.2-5.4,0.4c-1.4,1.6-1.2,4,0.4,5.4
			C600.8,80.2,603.2,80.1,604.6,78.5z"/>
		<path fill="#262626" d="M615.9,78.5c-2.1-0.3-4,1.2-4.3,3.2c-0.3,2.1,1.2,4,3.2,4.3c2.1,0.3,4-1.1,4.3-3.2
			C619.5,80.7,618,78.8,615.9,78.5z"/>
		<path fill="#262626" d="M643.7,67c-1.8-1.1-4.1-0.6-5.3,1.1c-1.1,1.8-0.6,4.1,1.1,5.3c1.8,1.1,4.1,0.6,5.3-1.1
			C646,70.5,645.5,68.2,643.7,67z"/>
		<path fill="#262626" d="M631.9,28c-1.9-0.9-4.2,0-5.1,1.9c-0.9,1.9,0,4.2,1.9,5.1c1.9,0.9,4.2,0,5.1-1.9
			C634.6,31.1,633.8,28.8,631.9,28z"/>
		<path fill="#262626" d="M643.7,44.5c1.8-1.1,2.3-3.5,1.1-5.3c-1.1-1.8-3.5-2.3-5.3-1.1c-1.8,1.1-2.3,3.5-1.1,5.3
			C639.6,45.2,642,45.7,643.7,44.5z"/>
		<path fill="#262626" d="M628.7,76.6c-1.9,0.9-2.8,3.1-1.9,5.1c0.9,1.9,3.1,2.8,5.1,1.9c1.9-0.9,2.8-3.1,1.9-5.1
			C632.9,76.6,630.6,75.7,628.7,76.6z"/>
		<path fill="#262626" d="M594.6,44.6c-2-0.6-4.2,0.6-4.7,2.6c-0.6,2,0.6,4.1,2.6,4.7c2,0.6,4.1-0.6,4.7-2.6
			C597.8,47.3,596.6,45.2,594.6,44.6z"/>
		<path fill="#262626" d="M615.9,33.1c2.1-0.3,3.5-2.2,3.2-4.3c-0.3-2.1-2.2-3.5-4.3-3.2c-2.1,0.3-3.5,2.2-3.2,4.3
			C611.9,31.9,613.8,33.4,615.9,33.1z"/>
		<path fill="#262626" d="M592.4,59.6c-2,0.6-3.2,2.7-2.6,4.7c0.6,2,2.7,3.2,4.7,2.6c2-0.6,3.2-2.7,2.6-4.7
			C596.6,60.2,594.5,59.1,592.4,59.6z"/>
		<path fill="#262626" d="M653,62.6c-1.6-0.5-3.3,0.4-3.8,2h0c-0.5,1.6,0.4,3.3,2.1,3.8c1.6,0.5,3.3-0.4,3.8-2.1
			C655.5,64.8,654.6,63.1,653,62.6z"/>
		<path fill="#262626" d="M606.3,27.2c1.5-0.7,2.2-2.5,1.5-4c-0.7-1.5-2.5-2.2-4-1.5c-1.5,0.7-2.2,2.5-1.5,4
			C602.9,27.2,604.7,27.9,606.3,27.2z"/>
		<path fill="#262626" d="M623.8,24.8c1.7,0.2,3.2-0.9,3.5-2.6c0.3-1.7-0.9-3.2-2.6-3.5c-1.7-0.2-3.2,0.9-3.5,2.6
			C620.9,23,622.1,24.5,623.8,24.8z"/>
		<path fill="#262626" d="M584.8,52.6c-1.7,0-3.1,1.4-3.1,3.1c0,1.7,1.4,3.1,3,3.1c1.7,0,3.1-1.4,3.1-3
			C587.9,54,586.5,52.6,584.8,52.6z"/>
		<path fill="#262626" d="M651.3,43.3c-1.6,0.5-2.5,2.2-2.1,3.8c0.5,1.6,2.2,2.6,3.8,2.1c1.6-0.5,2.6-2.2,2.1-3.8
			C654.7,43.7,653,42.8,651.3,43.3z"/>
		<path fill="#262626" d="M606.1,84.2c-1.5-0.7-3.3,0-4.1,1.5c-0.7,1.5,0,3.3,1.5,4.1c1.5,0.7,3.3,0,4.1-1.5
			C608.3,86.7,607.6,84.9,606.1,84.2z"/>
		<path fill="#262626" d="M588.6,71.7c-1.4,0.9-1.9,2.8-0.9,4.2c0.9,1.4,2.8,1.8,4.2,0.9c1.4-0.9,1.8-2.8,0.9-4.2
			C591.9,71.2,590,70.7,588.6,71.7z"/>
		<path fill="#262626" d="M639.6,79.5c-1.3,1.1-1.4,3-0.3,4.3c1.1,1.3,3,1.4,4.3,0.3c1.3-1.1,1.4-3,0.3-4.3
			C642.8,78.5,640.9,78.4,639.6,79.5z"/>
		<path fill="#262626" d="M644.1,31.9c1.1-1.3,1-3.2-0.3-4.3c-1.3-1.1-3.2-1-4.3,0.3c-1.1,1.3-1,3.2,0.3,4.3
			C641.1,33.3,643,33.2,644.1,31.9z"/>
		<path fill="#262626" d="M588.7,39.6c1.4,0.9,3.3,0.5,4.2-0.9c0.9-1.4,0.5-3.3-0.9-4.2c-1.4-0.9-3.3-0.5-4.2,0.9
			C586.9,36.8,587.3,38.7,588.7,39.6z"/>
		<path fill="#262626" d="M623.5,86.8c-1.7,0.2-2.8,1.8-2.6,3.5c0.2,1.7,1.8,2.8,3.5,2.6c1.7-0.2,2.8-1.8,2.6-3.5
			C626.7,87.7,625.2,86.5,623.5,86.8z"/>
		<path fill="#FFFFFF" d="M633.9,55.8c0-7.4-6-13.5-13.5-13.5c-7.5,0-13.5,6.1-13.5,13.5c0,7.5,6.1,13.5,13.5,13.5
			C627.8,69.3,633.9,63.2,633.9,55.8z"/>
	</g>
</g>
<g id="Ebene_2">
	<g>
		<path fill="none" d="M471.6,28.7c-3.8,0-6.5,0.2-8.7,0.3v53.6c2.2,0.1,4.9,0.3,8.7,0.3c10.3,0,18.2-4,18.2-19.5V48.2
			C489.8,32.7,481.9,28.7,471.6,28.7z"/>
		<path fill="none" d="M354.1,29.3c-2.2,0-7.3,0.2-9.2,0.4v23.3c1.7,0.1,7.4,0.3,9.2,0.3c10.7,0,15.5-2.9,15.5-12v-0.9
			C369.6,32.6,364.4,29.3,354.1,29.3z"/>
		<path fill="#FFFFFF" d="M55.9,18.7c0-0.7-0.6-1.3-2-1.3H42.2c-1.2,0-1.9,0.1-2.4,0.8l-25.3,34V19.4c0-1.1-0.9-2-2.1-2H2.2
			c-1.1,0-2.1,0.8-2.1,2V92c0,1.1,0.9,2.1,2.1,2.1h10.2c1.2,0,2.1-0.9,2.1-2.1V57.7L38.1,93c0.5,0.8,1.2,1.1,2.4,1.1h13.8
			c1,0,1.5-0.3,1.5-0.9c0-0.3-0.2-0.7-0.5-1.2L28.7,54.5l26.5-34.2C55.6,19.8,55.9,19.2,55.9,18.7z"/>
		<path fill="#FFFFFF" d="M89.2,17.4H78.9c-1.1,0-2.1,0.8-2.1,2v72.7c0,1.1,0.9,2.1,2.1,2.1h10.2c1.1,0,2.1-0.9,2.1-2.1V19.4
			C91.2,18.2,90.3,17.4,89.2,17.4z"/>
		<path fill="#FFFFFF" d="M194.1,17h-11c-0.8,0-1.7,0.7-1.8,1.9L174,80.5c-0.1,0.9-0.1,1.6-0.5,1.6c-0.4,0-0.4-0.6-0.6-1.6L164,44.2
			c-0.6-2.5-2.1-4.6-6.5-4.6h-7.1c-4.4,0-5.9,2.2-6.5,4.6l-8.9,36.3c-0.2,0.9-0.2,1.6-0.6,1.6c-0.4,0-0.4-0.6-0.5-1.6l-7.5-61.7
			c-0.1-1.1-0.9-1.9-1.7-1.9h-11c-0.9,0-1.8,0.5-1.8,1.4v0.3l9.7,67.5c0.9,6.5,3.9,8.4,9.3,8.4h5.6c4.6,0,7.1-2.3,8.6-8.3l8.2-34.1
			c0.2-0.9,0.3-1.1,0.7-1.1c0.4,0,0.4,0.2,0.6,1.1l8.2,34.1c1.4,6,3.9,8.3,8.6,8.3h5.6c5.4,0,8.4-1.9,9.3-8.4l9.7-67.5v-0.3
			C195.9,17.5,195.1,17,194.1,17z"/>
		<path fill="#FFFFFF" d="M228.8,17.4h-10.2c-1.1,0-2.1,0.8-2.1,2v72.7c0,1.1,0.9,2.1,2.1,2.1h10.2c1.1,0,2.1-0.9,2.1-2.1V19.4
			C230.8,18.2,229.9,17.4,228.8,17.4z"/>
		<path fill="#FFFFFF" d="M302.7,18.4c-3.4-0.6-12.3-1.9-22.2-1.9c-12.3,0-28,7.3-28,31.8v14.9c0,24.4,16.5,31.7,27.7,31.7
			c10.6,0,17.4-0.7,22.5-1.7c1.3-0.3,2-1.1,2-2.5V56c0-1.2-0.9-2.1-2-2.1h-10.2c-1.1,0-2,0.9-2,2.1v26.4c-3.2,0.2-6.4,0.3-10.2,0.3
			c-6.1,0-13.2-4.8-13.2-19.4V48.4c0-14.7,6.6-19.5,13.5-19.5c9.9,0,17.1,0.4,21.8,0.8h0.3c1.6,0,2-0.7,2-2.2v-6.9
			C304.7,19.3,304.1,18.7,302.7,18.4z"/>
		<path fill="#FFFFFF" d="M369.9,62.3c8.5-3.3,13.9-10.1,13.9-21.1v-0.9c0-17.7-13.8-23.4-29.8-23.4c-7.5,0-14.9,0.5-20.2,1.3
			c-2.1,0.3-3.3,1-3.3,3.1v71.1c0,1.1,0.9,2.1,2.1,2.1h10.3c1.2,0,2-0.9,2-2.1v-28c2.4,0.1,6.5,0.4,9.2,0.4h1.5l14.9,27.6
			c0.5,1,0.9,2.1,2.1,2.1h12.6c0.8,0,1.2-0.5,1.2-1.2c0-0.2,0-0.5-0.2-0.8L369.9,62.3z M369.6,41.3c0,9.1-4.8,12-15.5,12
			c-1.7,0-7.5-0.2-9.2-0.3V29.7c1.9-0.2,7-0.4,9.2-0.4c10.4,0,15.5,3.3,15.5,11.1V41.3z"/>
		<path fill="#FFFFFF" d="M420.6,17.4h-10.2c-1.1,0-2.1,0.8-2.1,2v72.7c0,1.1,0.9,2.1,2.1,2.1h10.2c1.1,0,2.1-0.9,2.1-2.1V19.4
			C422.7,18.2,421.8,17.4,420.6,17.4z"/>
		<path fill="#FFFFFF" d="M471.6,16.6c-7.3,0-17.2,0.7-20.3,1.2c-1.8,0.3-2.7,1.2-2.7,3.2v69.5c0,2.1,0.9,2.9,2.7,3.2
			c3.1,0.5,13,1.2,20.3,1.2c20.7,0,32.5-11.2,32.5-31.6V48.2C504,27.7,492.2,16.6,471.6,16.6z M489.8,63.4
			c0,15.5-7.9,19.5-18.2,19.5c-3.8,0-6.5-0.2-8.7-0.3V29c2.2-0.1,4.9-0.3,8.7-0.3c10.3,0,18.2,4,18.2,19.5V63.4z"/>
		<path fill="#BABF10" d="M684.2,55.9c-1.9-3.1-4-6.1-6.2-9c-6-7.8-13.1-15.8-21.7-24.4c-2.8-2.8-5.4-5.3-7.9-7.5
			c-3.1-2.8-5.7-5-8.3-7c-1.6-1.3-3.1-2.2-4.4-3c-0.7-0.4-1.5-0.9-2.4-1.2c-0.9-0.3-1.9-0.4-2.9-0.5l-4.4,0.3
			c-5.4,0.3-7.9,1-12.1,2.2l-1.4,0.4c-2.8,0.8-5.2,1.5-7.4,2.2c-2.2,0.7-4.5,1.5-7.1,2.5c-5.2,1.9-9.6,3.8-13.5,5.7
			c-2.1,1.1-4.2,2.2-6.1,3.4c-1.1,0.7-1.9,1.3-2.7,1.9c-0.7,0.6-1.6,1.4-2.1,2.2c-0.5,0.8-0.8,1.8-1.2,2.9l-0.1,0.3
			c-1.2,3.5-2,7.2-3,11.4c-1,4.5-2,9.6-3.1,16.2c-0.9,5.3-1.7,10.8-2.4,16.9c-0.7,5.6-1.1,10.6-1.3,15.5l0,0.8c0,0.6,0,1.1-0.1,1.7
			l0,3.5c0.1,2,0.2,3.7,0.4,5.2c0.2,1.2,0.5,2.8,1.2,3.8c0.7,0.9,2,1.5,3,1.9c1.2,0.5,2.6,1,4.2,1.4c6.4,1.6,14,2.2,20.5,2.6
			c3.9,0.2,8.1,0.3,11.4,0.3c8.2,0,15.4-0.5,21.8-1.4c2.8-0.4,6.4-1,9.4-2c2.8-0.9,5.4-2,8.3-3.3c2.5-1.1,4.9-2.2,7.3-3.4l0.6-0.3
			c5.1-2.5,10-5.1,15.1-8.2c5.3-3.2,9.8-6.3,13.6-9.5c1-0.8,2-1.7,2.9-2.7c1-1,1.9-2,2.7-3c1.5-1.9,3.1-4.2,3.5-7.3v-1.1
			c-0.2-2-1-3.8-1.7-5.4C686.1,59.2,685.2,57.6,684.2,55.9z M587.9,35.4c0.9-1.4,2.8-1.8,4.2-0.9c1.4,0.9,1.8,2.8,0.9,4.2
			c-0.9,1.4-2.8,1.8-4.2,0.9C587.3,38.7,586.9,36.8,587.9,35.4z M584.9,58.7c-1.7,0-3.1-1.4-3-3.1c0-1.7,1.4-3.1,3.1-3.1
			c1.7,0,3,1.4,3,3.1C587.9,57.3,586.6,58.7,584.9,58.7z M591.9,76.8c-1.4,0.9-3.3,0.5-4.2-0.9c-0.9-1.4-0.5-3.3,0.9-4.2
			c1.4-0.9,3.3-0.5,4.2,0.9C593.7,74,593.3,75.9,591.9,76.8z M594.7,67c-2,0.6-4.2-0.6-4.7-2.6c-0.6-2,0.6-4.1,2.6-4.7
			c2-0.6,4.1,0.6,4.7,2.6C597.9,64.3,596.7,66.4,594.7,67z M597.3,49.3c-0.6,2-2.7,3.2-4.7,2.6c-2-0.6-3.2-2.7-2.6-4.7
			c0.6-2,2.7-3.2,4.7-2.6C596.7,45.2,597.9,47.3,597.3,49.3z M621.3,21.3c0.2-1.7,1.8-2.8,3.5-2.6c1.7,0.2,2.8,1.8,2.6,3.5
			c-0.2,1.7-1.8,2.8-3.5,2.6C622.2,24.5,621,23,621.3,21.3z M614.9,25.5c2.1-0.3,4,1.1,4.3,3.2c0.3,2.1-1.2,4-3.2,4.3
			c-2.1,0.3-4-1.2-4.3-3.2C611.4,27.8,612.8,25.8,614.9,25.5z M603.8,21.7c1.5-0.7,3.3,0,4,1.5c0.7,1.5,0,3.4-1.5,4
			c-1.5,0.7-3.3,0-4-1.5C601.6,24.2,602.3,22.3,603.8,21.7z M599.2,32.7c1.6-1.4,4-1.2,5.4,0.4c1.4,1.6,1.2,4-0.4,5.4
			c-1.6,1.4-4,1.2-5.4-0.4C597.5,36.5,597.6,34.1,599.2,32.7z M598.9,73.5c1.4-1.6,3.8-1.8,5.4-0.4c1.6,1.4,1.8,3.8,0.4,5.4
			c-1.4,1.6-3.8,1.8-5.4,0.4C597.6,77.5,597.5,75.1,598.9,73.5z M607.6,88.2c-0.7,1.5-2.5,2.2-4.1,1.5c-1.5-0.7-2.2-2.5-1.5-4.1
			c0.7-1.5,2.5-2.2,4.1-1.5C607.7,84.9,608.3,86.7,607.6,88.2z M619.2,82.8c-0.3,2.1-2.2,3.5-4.3,3.2c-2.1-0.3-3.5-2.2-3.2-4.3
			c0.3-2.1,2.2-3.5,4.3-3.2C618.1,78.8,619.5,80.7,619.2,82.8z M606.9,55.8c0-7.4,6.1-13.5,13.5-13.5c7.5,0,13.5,6.1,13.5,13.5
			c0,7.5-6,13.5-13.5,13.5C613,69.3,606.9,63.2,606.9,55.8z M624.5,92.8c-1.7,0.2-3.2-0.9-3.5-2.6c-0.2-1.7,0.9-3.2,2.6-3.5
			c1.7-0.2,3.2,0.9,3.4,2.6C627.3,91,626.1,92.6,624.5,92.8z M631.9,83.6c-1.9,0.9-4.2,0-5.1-1.9c-0.9-1.9,0-4.2,1.9-5.1
			c1.9-0.9,4.2,0,5.1,1.9C634.7,80.4,633.9,82.7,631.9,83.6z M633.8,33c-0.9,1.9-3.1,2.8-5.1,1.9c-1.9-0.9-2.8-3.2-1.9-5.1
			c0.9-1.9,3.2-2.8,5.1-1.9C633.9,28.9,634.7,31.1,633.8,33z M639.6,27.9c1.1-1.3,3-1.4,4.3-0.3c1.3,1.1,1.4,3,0.3,4.3
			c-1.1,1.3-3,1.4-4.3,0.3C638.6,31.1,638.5,29.1,639.6,27.9z M639.7,38.1c1.8-1.1,4.1-0.6,5.3,1.1c1.1,1.8,0.6,4.1-1.1,5.3
			c-1.8,1.1-4.1,0.6-5.3-1.1C637.4,41.6,637.9,39.3,639.7,38.1z M643.7,84.1c-1.3,1.1-3.2,1-4.3-0.3c-1.1-1.3-1-3.2,0.3-4.3
			c1.3-1.1,3.2-1,4.3,0.3C645.1,81.1,644.9,83,643.7,84.1z M645,72.3c-1.1,1.8-3.5,2.3-5.3,1.1c-1.8-1.1-2.3-3.5-1.1-5.3
			c1.1-1.8,3.5-2.3,5.3-1.1C645.6,68.2,646.1,70.5,645,72.3z M646,59.6c-2.1,0-3.8-1.7-3.8-3.8c0-2.1,1.7-3.8,3.8-3.8
			c2.1,0,3.8,1.7,3.8,3.8C649.8,57.9,648.1,59.6,646,59.6z M655.1,66.4c-0.5,1.6-2.2,2.6-3.8,2.1c-1.6-0.5-2.5-2.2-2.1-3.8h0
			c0.5-1.6,2.2-2.5,3.8-2C654.7,63.1,655.6,64.8,655.1,66.4z M653.1,49.1c-1.6,0.5-3.3-0.5-3.8-2.1c-0.5-1.6,0.5-3.3,2.1-3.8
			c1.6-0.5,3.3,0.5,3.8,2.1C655.7,47,654.7,48.7,653.1,49.1z"/>
		<path fill="#829028" d="M691.1,65.9c-0.3-2.4-1.1-4.4-2-6.3c-0.8-1.6-1.7-3.3-2.8-5.1c-1.9-3.1-4.1-6.2-6.4-9.2
			c-6-7.9-13.2-16-21.9-24.7c-2.9-2.9-5.5-5.3-8-7.6c-3.1-2.8-5.8-5.1-8.5-7.1c-1.7-1.3-3.2-2.4-4.7-3.2c-0.8-0.5-1.7-1-2.8-1.4
			c-1.2-0.4-2.5-0.5-3.7-0.6l-0.1,0L625.7,1c-5.6,0.3-8.4,1.1-12.6,2.3l-1.4,0.4c-2.9,0.8-5.3,1.5-7.5,2.2c-2.3,0.7-4.6,1.5-7.3,2.5
			c-5.3,1.9-9.8,3.9-13.8,5.8c-2.2,1.1-4.3,2.3-6.3,3.6c-1.2,0.7-2.1,1.4-2.9,2.1c-0.9,0.8-1.9,1.7-2.6,2.8c-0.6,1-1,2.3-1.4,3.4
			l-0.1,0.3c-1.2,3.6-2.1,7.4-3,11.7c-1,4.5-2,9.7-3.1,16.3c-0.9,5.3-1.7,10.9-2.4,17c-0.7,5.6-1.1,10.8-1.3,15.7l0,0.8
			c0,0.5,0,1.1,0,1.6l0,3.6c0.1,2.1,0.2,3.9,0.4,5.6c0.3,2.3,0.9,3.9,1.8,5c1.1,1.3,2.7,2.1,4,2.7c1.4,0.6,2.8,1.1,4.6,1.5
			c6.6,1.7,14.3,2.3,21,2.7c4,0.2,8.3,0.3,11.5,0.3c8.4,0,15.6-0.5,22.2-1.4c3.1-0.4,6.6-1,9.9-2.1c2.9-1,5.6-2.1,8.5-3.3
			c2.5-1.1,5-2.3,7.4-3.4l0.6-0.3c5.1-2.5,10.2-5.2,15.3-8.3c5.4-3.3,10-6.5,13.9-9.8c1-0.9,2.1-1.8,3.1-2.9c1.1-1.1,2-2.1,2.9-3.2
			c1.7-2.2,3.6-4.9,4-8.6l0-1.4L691.1,65.9z M688.6,67.3c-0.4,3.1-2,5.4-3.5,7.3c-0.8,1-1.7,2-2.7,3c-1,1-2,1.9-2.9,2.7
			c-3.8,3.2-8.3,6.4-13.6,9.5c-5.1,3.1-10,5.7-15.1,8.2l-0.6,0.3c-2.4,1.1-4.9,2.3-7.3,3.4c-2.9,1.2-5.5,2.3-8.3,3.3
			c-3.1,1-6.6,1.6-9.4,2c-6.5,0.9-13.6,1.4-21.8,1.4c-3.2,0-7.5,0-11.4-0.3c-6.5-0.4-14.1-1-20.5-2.6c-1.7-0.4-3-0.9-4.2-1.4
			c-1-0.4-2.3-1-3-1.9c-0.8-0.9-1.1-2.6-1.2-3.8c-0.2-1.6-0.3-3.2-0.4-5.2l0-3.5c0-0.5,0-1.1,0.1-1.7l0-0.8
			c0.2-4.9,0.7-9.9,1.3-15.5c0.7-6.1,1.5-11.6,2.4-16.9c1.1-6.5,2.1-11.7,3.1-16.2c0.9-4.2,1.8-7.9,3-11.4l0.1-0.3
			c0.4-1.1,0.7-2.2,1.2-2.9c0.5-0.8,1.3-1.5,2.1-2.2c0.7-0.6,1.6-1.3,2.7-1.9c1.9-1.2,3.9-2.4,6.1-3.4c3.8-1.9,8.2-3.8,13.5-5.7
			c2.7-1,4.9-1.8,7.1-2.5c2.2-0.7,4.6-1.4,7.4-2.2l1.4-0.4c4.2-1.2,6.7-1.9,12.1-2.2l4.4-0.3c1,0.1,2,0.2,2.9,0.5
			c0.9,0.3,1.7,0.8,2.4,1.2c1.4,0.8,2.8,1.8,4.4,3c2.6,2,5.2,4.2,8.3,7c2.5,2.2,5,4.6,7.9,7.5c8.6,8.6,15.7,16.6,21.7,24.4
			c2.2,2.9,4.3,5.9,6.2,9c1,1.7,1.9,3.3,2.7,4.9c0.8,1.6,1.5,3.4,1.7,5.4V67.3z"/>
		<path fill="#262626" d="M643.8,67c-1.8-1.1-4.1-0.6-5.3,1.1c-1.1,1.8-0.6,4.1,1.1,5.3c1.8,1.1,4.1,0.6,5.3-1.1
			C646.1,70.5,645.6,68.2,643.8,67z"/>
		<path fill="#262626" d="M604.6,78.5c1.4-1.6,1.2-4-0.4-5.4c-1.6-1.4-4-1.2-5.4,0.4c-1.4,1.6-1.2,4,0.4,5.4
			C600.8,80.3,603.3,80.1,604.6,78.5z"/>
		<path fill="#262626" d="M616,78.5c-2.1-0.3-4,1.2-4.3,3.2c-0.3,2.1,1.2,4,3.2,4.3c2.1,0.3,4-1.1,4.3-3.2
			C619.5,80.7,618.1,78.8,616,78.5z"/>
		<path fill="#262626" d="M628.8,76.6c-1.9,0.9-2.8,3.1-1.9,5.1c0.9,1.9,3.1,2.8,5.1,1.9c1.9-0.9,2.8-3.1,1.9-5.1
			C633,76.6,630.7,75.7,628.8,76.6z"/>
		<path fill="#262626" d="M604.3,38.5c1.6-1.4,1.8-3.8,0.4-5.4c-1.4-1.6-3.8-1.8-5.4-0.4c-1.6,1.4-1.8,3.8-0.4,5.4
			C600.2,39.7,602.7,39.8,604.3,38.5z"/>
		<path fill="#262626" d="M631.9,28c-1.9-0.9-4.2,0-5.1,1.9c-0.9,1.9,0,4.2,1.9,5.1c1.9,0.9,4.2,0,5.1-1.9
			C634.7,31.1,633.9,28.9,631.9,28z"/>
		<path fill="#262626" d="M643.8,44.5c1.8-1.1,2.3-3.5,1.1-5.3c-1.1-1.8-3.5-2.3-5.3-1.1c-1.8,1.1-2.3,3.5-1.1,5.3
			C639.7,45.2,642.1,45.7,643.8,44.5z"/>
		<path fill="#262626" d="M616,33.1c2.1-0.3,3.5-2.2,3.2-4.3c-0.3-2.1-2.2-3.5-4.3-3.2c-2.1,0.3-3.5,2.2-3.2,4.3
			C612,31.9,613.9,33.4,616,33.1z"/>
		<path fill="#262626" d="M594.7,44.6c-2-0.6-4.2,0.6-4.7,2.6c-0.6,2,0.6,4.1,2.6,4.7c2,0.6,4.1-0.6,4.7-2.6
			C597.9,47.3,596.7,45.2,594.7,44.6z"/>
		<path fill="#262626" d="M592.5,59.6c-2,0.6-3.2,2.7-2.6,4.7c0.6,2,2.7,3.2,4.7,2.6c2-0.6,3.2-2.7,2.6-4.7
			C596.7,60.2,594.5,59.1,592.5,59.6z"/>
		<path fill="#262626" d="M646,52c-2.1,0-3.8,1.7-3.8,3.8c0,2.1,1.7,3.8,3.8,3.8c2.1,0,3.8-1.7,3.8-3.8C649.8,53.7,648.1,52,646,52z
			"/>
		<path fill="#262626" d="M653.1,62.6c-1.6-0.5-3.3,0.4-3.8,2h0c-0.5,1.6,0.4,3.3,2.1,3.8c1.6,0.5,3.3-0.4,3.8-2.1
			C655.6,64.8,654.7,63.1,653.1,62.6z"/>
		<path fill="#262626" d="M606.4,27.2c1.5-0.7,2.2-2.5,1.5-4c-0.7-1.5-2.5-2.2-4-1.5c-1.5,0.7-2.2,2.5-1.5,4
			C603,27.2,604.8,27.9,606.4,27.2z"/>
		<path fill="#262626" d="M588.8,39.6c1.4,0.9,3.3,0.5,4.2-0.9c0.9-1.4,0.5-3.3-0.9-4.2c-1.4-0.9-3.3-0.5-4.2,0.9
			C586.9,36.8,587.3,38.7,588.8,39.6z"/>
		<path fill="#262626" d="M623.8,24.8c1.7,0.2,3.2-0.9,3.5-2.6c0.3-1.7-0.9-3.2-2.6-3.5c-1.7-0.2-3.2,0.9-3.5,2.6
			C621,23,622.2,24.5,623.8,24.8z"/>
		<path fill="#262626" d="M584.9,52.6c-1.7,0-3.1,1.4-3.1,3.1c0,1.7,1.4,3.1,3,3.1c1.7,0,3.1-1.4,3.1-3
			C587.9,54,586.6,52.6,584.9,52.6z"/>
		<path fill="#262626" d="M588.6,71.7c-1.4,0.9-1.9,2.8-0.9,4.2c0.9,1.4,2.8,1.8,4.2,0.9c1.4-0.9,1.8-2.8,0.9-4.2
			C591.9,71.2,590,70.8,588.6,71.7z"/>
		<path fill="#262626" d="M651.4,43.3c-1.6,0.5-2.5,2.2-2.1,3.8c0.5,1.6,2.2,2.6,3.8,2.1c1.6-0.5,2.6-2.2,2.1-3.8
			C654.7,43.7,653,42.8,651.4,43.3z"/>
		<path fill="#262626" d="M606.1,84.2c-1.5-0.7-3.3,0-4.1,1.5c-0.7,1.5,0,3.3,1.5,4.1c1.5,0.7,3.3,0,4.1-1.5
			C608.3,86.7,607.7,84.9,606.1,84.2z"/>
		<path fill="#262626" d="M623.6,86.8c-1.7,0.2-2.8,1.8-2.6,3.5c0.2,1.7,1.8,2.8,3.5,2.6c1.7-0.2,2.8-1.8,2.6-3.5
			C626.8,87.7,625.3,86.5,623.6,86.8z"/>
		<path fill="#262626" d="M644.2,31.9c1.1-1.3,1-3.2-0.3-4.3c-1.3-1.1-3.2-1-4.3,0.3c-1.1,1.3-1,3.2,0.3,4.3
			C641.1,33.3,643.1,33.2,644.2,31.9z"/>
		<path fill="#262626" d="M639.7,79.5c-1.3,1.1-1.4,3-0.3,4.3c1.1,1.3,3,1.4,4.3,0.3c1.3-1.1,1.4-3,0.3-4.3
			C642.9,78.5,641,78.4,639.7,79.5z"/>
		<path fill="#FFFFFF" d="M633.9,55.8c0-7.4-6-13.5-13.5-13.5c-7.5,0-13.5,6.1-13.5,13.5c0,7.5,6.1,13.5,13.5,13.5
			C627.9,69.3,633.9,63.2,633.9,55.8z"/>
	</g>
</g>
</svg>
